<?xml version="1.0" encoding="utf-8"?>
<!-- Generator: Adobe Illustrator 27.5.0, SVG Export Plug-In . SVG Version: 6.00 Build 0)  -->
<svg version="1.1" id="Layer_1" xmlns="http://www.w3.org/2000/svg" xmlns:xlink="http://www.w3.org/1999/xlink" x="0px" y="0px"
	 viewBox="0 0 940 290" style="enable-background:new 0 0 940 290;" xml:space="preserve">
<style type="text/css">
	.st0{fill:#23AAC9;}
	.st1{fill:#272727;}
</style>
<g id="Layer_1_00000049910808426748845330000001384579968599031733_">
	<g>
		<g>
			<path class="st0" d="M164.5,228.6c-2.2-3.4-5.9-5.4-9.9-5.4c-0.8,0-1.6,0.1-2.4,0.2c-4.9,1-10,1.5-15.2,1.5
				c-1.8,0-3.6-0.1-5.4-0.2C93.7,222.1,63,191.8,60,153.9c-3.6-45.4,32.3-83.4,76.9-83.4c5.3,0,10.4,0.5,15.4,1.5
				c0.8,0.2,1.6,0.2,2.3,0.2c4.1,0,7.9-2.1,10.2-5.6l0,0c4.5-7.1,0.6-16.7-7.7-18.3c-6.5-1.3-13.3-2-20.2-2c-1.5,0-2.9,0-4.4,0.1
				c-52.1,2.2-94.4,44.3-96.9,96.4C33,201.1,79.5,249.2,137.1,249.2c7.1,0,13.9-0.7,20.6-2.1c7.9-1.6,11.8-10.7,7.5-17.5
				L164.5,228.6z M161.2,238.2c-0.8,2-2.5,3.3-4.6,3.8c-6.4,1.3-13,2-19.5,2c-13.4,0-26.3-2.7-38.5-8c-11.7-5.1-22.2-12.5-31.1-21.8
				c-18.3-19.2-27.7-44.4-26.5-71c1.1-23.9,11.2-46.4,28.3-63.4s39.7-27,63.6-28c1.4-0.1,2.8-0.1,4.2-0.1l0,0
				c6.4,0,12.9,0.6,19.2,1.9c2.2,0.4,3.9,1.9,4.8,4c0.9,2.1,0.7,4.5-0.5,6.4c-1.3,2-3.5,3.2-5.7,3.2c-0.4,0-0.9,0-1.3-0.1
				c-5.4-1.1-10.9-1.7-16.4-1.7c-22.9,0-44.9,9.7-60.5,26.5c-15.8,17.1-23.5,39.3-21.6,62.5c3.2,40.3,36,72.8,76.4,75.6
				c1.9,0.1,3.8,0.2,5.7,0.2c5.5,0,10.9-0.5,16.2-1.6c0.5-0.1,0.9-0.1,1.4-0.1c2.2,0,4.3,1.1,5.4,2.9l0.6,1
				C161.8,234.2,162,236.3,161.2,238.2z"/>
			<path class="st0" d="M176.9,213.9l-31.4-49.8c-1.8-2.8-5.4-3.7-8.3-2.1l0,0c-3.1,1.7-4.1,5.7-2.2,8.7l40.1,63.6l0,0l0.4,0.7
				c2,3.1,6,4.1,9.2,2.4c30.2-16.2,51.4-47.2,53.6-83.3l-26.5,13.1C206.7,186.9,193.9,203.6,176.9,213.9z"/>
			<path class="st0" d="M97.7,160.3h30.4l10.8-6.1l0,0l0.3-0.2h73.4v6.6l26-12.8l-26-12.8v6.6h-73.4l0,0l-0.3-0.2l0,0l-10.8-6H97.7
				c0,6.8,5.4,12.3,12.2,12.4C103.1,148,97.7,153.5,97.7,160.3z"/>
			<path class="st0" d="M135,124.9c-1.9,3-0.9,7,2.2,8.8c2.9,1.6,6.5,0.7,8.3-2.1l31.6-49.7c16.9,10.3,29.6,27,34.7,46.7l26.5,13.1
				c-2.2-36-23.2-67-53.3-83.2c-3.2-1.7-7.2-0.7-9.2,2.4l-0.9,1.4c0,0.1-0.1,0.1-0.1,0.2L135,124.9z"/>
		</g>
		<g>
			<path class="st1" d="M547.7,126.2c-5-2.7-10.7-4.1-17-4.1c-6.6,0-12.4,1.5-17.5,4.3c-5,2.8-9,6.9-11.8,12.1
				c-2.8,5.2-4.2,11.3-4.2,18.2c0,6.9,1.4,13,4.3,18.2c2.9,5.2,6.9,9.3,12,12.2s10.9,4.3,17.3,4.3c7.9,0,14.5-2,19.8-5.9
				c5.3-3.9,9-9,11-15.2h-15c-3.1,6.3-8.4,9.4-15.9,9.4c-5.2,0-9.6-1.6-13.2-4.9c-3.6-3.2-5.6-7.5-6-12.9h51.4
				c0.3-2,0.4-4.3,0.6-6.7c0-6.5-1.4-12.3-4.2-17.3S552.7,129,547.7,126.2z M548.8,150.8h-37.2c0.6-5.2,2.7-9.3,6.1-12.4
				c3.4-3.1,7.5-4.6,12.3-4.6c5.3,0,9.7,1.5,13.3,4.6C546.9,141.5,548.7,145.6,548.8,150.8L548.8,150.8z"/>
			<path class="st1" d="M605.4,133.7c4,0,7.4,0.9,10.1,2.8c2.7,1.9,4.7,4.5,5.9,7.8h15c-1.9-7.1-5.5-12.6-10.8-16.5
				s-12.1-5.8-20.2-5.8c-6.4,0-12.1,1.5-17.1,4.3s-8.9,6.9-11.7,12.1c-2.8,5.2-4.2,11.3-4.2,18.3c0,6.9,1.4,13,4.2,18.2
				c2.9,5.2,6.7,9.3,11.7,12.2s10.7,4.3,17.1,4.3c8,0,14.6-2,20-6s9-9.5,11-16.3h-15c-2.6,7.1-7.9,10.6-16,10.6
				c-5.7,0-10.2-2-13.6-6.1c-3.4-4.1-5.1-9.8-5.1-17s1.7-12.9,5.1-16.9C595.2,135.7,599.7,133.7,605.4,133.7z"/>
			<path class="st1" d="M666.4,106.2h-14v16.7h-7.9v11.4h7.9v37.2c0,6.6,1.7,11.4,5,14.3c3.3,2.9,8.1,4.4,14.4,4.4h11v-11.6h-8.5
				c-2.8,0-4.8-0.5-6-1.6c-1.2-1.1-1.8-2.9-1.8-5.4v-37.2v-0.1h16.3v-11.4h-16.4V106.2z"/>
			<path class="st1" d="M746.2,132.9c-2.4-3.1-5.6-5.7-9.5-7.8c-4-2.1-8.6-3.1-13.9-3.1c-5.9,0-11.3,1.4-16.1,4.3
				c-4.9,2.8-8.7,6.9-11.5,12.1c-2.8,5.3-4.2,11.2-4,18c0,6.7,1.4,12.8,4.2,18.1c2.8,5.4,6.6,9.5,11.4,12.5c4.8,3,10.1,4.5,15.9,4.5
				c5.2,0,9.8-1.1,13.9-3.2c4-2.1,7.2-4.7,9.6-7.9v10h14v-67.3h-14V132.9z M743.2,168.7c-1.9,3.5-4.4,6.1-7.5,7.9
				c-3.1,1.8-6.4,2.7-10,2.7c-3.5,0-6.8-0.9-9.9-2.7c-3.2-1.8-5.7-4.5-7.6-8s-2.9-7.6-2.9-12.2c0-4.6,1-8.6,2.9-12
				c1.9-3.4,4.4-5.9,7.5-7.7c3.1-1.7,6.4-2.6,10-2.6s6.9,0.9,10,2.7s5.6,4.4,7.5,7.8c1.9,3.4,2.9,7.4,2.9,12
				C746.1,161.2,745.1,165.2,743.2,168.7z"/>
			<path class="st1" d="M825.4,160.6c0,6.1-1.5,10.7-4.6,13.9c-3.1,3.2-7.2,4.8-12.4,4.8s-9.3-1.6-12.3-4.8c-3-3.3-4.5-7.9-4.5-13.9
				v-37.5h-13.8v39.6c0,6.1,1.2,11.3,3.6,15.6s5.7,7.6,9.9,9.8s8.9,3.3,14.2,3.3c4,0,7.8-0.8,11.3-2.4c3.5-1.6,6.4-3.7,8.6-6.5v7.9
				h13.9v-67.3h-13.9V160.6z"/>
			<path class="st1" d="M879.7,124.8c-3.4,2-6.1,4.6-8.1,7.9v-9.8h-13.9v67.3h13.9v-35.4c0-6.8,1.4-11.6,4.2-14.4
				c2.8-2.7,6.9-4.1,12.4-4.1h3.5v-14.4C887.1,121.9,883.1,122.9,879.7,124.8z"/>
			<path class="st1" d="M339.5,146c3.2-4.5,4.8-9.6,4.8-15.1c0-4.7-1.2-9-3.4-12.8c-2.2-3.9-5.6-6.9-10.1-9.2
				c-4.6-2.3-10.1-3.4-16.6-3.4h-29.3v84.9h13.9v-34h10.6l19.5,34h16.8l-21-35.2C331.3,153.6,336.3,150.5,339.5,146z M298.8,145.3
				v-28.4h15.4c5.2,0,9.2,1.2,11.8,3.7c2.6,2.5,3.9,5.9,3.9,10.3c0,4.4-1.4,7.9-4,10.5c-2.7,2.6-6.6,3.9-11.8,3.9H298.8z"/>
			<path class="st1" d="M405.5,126c-5-2.8-10.6-4.2-17-4.2c-6.6,0-12.4,1.5-17.5,4.3c-5,2.9-9,6.9-11.8,12.2
				c-2.8,5.3-4.2,11.4-4.2,18.3c0,7,1.4,13,4.3,18.3c2.9,5.2,6.9,9.3,12,12.2c5.1,2.9,10.9,4.3,17.3,4.3c7.8,0,14.5-1.9,19.8-5.9
				c5.4-3.9,9.1-9,11.1-15.2h-15c-3.1,6.3-8.4,9.4-15.9,9.4c-5.2,0-9.6-1.6-13.2-4.9c-3.6-3.2-5.6-7.5-6-12.9h51.4
				c0.3-2,0.5-4.3,0.5-6.9c0-6.5-1.4-12.3-4.2-17.3S410.5,128.8,405.5,126z M406.7,150.8h-37.2c0.6-5.2,2.7-9.3,6.1-12.4
				c3.4-3.1,7.5-4.6,12.3-4.6c5.3,0,9.7,1.5,13.3,4.6C404.8,141.5,406.6,145.6,406.7,150.8L406.7,150.8z"/>
			<path class="st1" d="M474.8,155.3c-3.1-1.4-7.1-2.7-12-4c-3.7-1-6.4-1.9-8.3-2.6c-1.9-0.7-3.5-1.7-4.8-2.9s-2-2.7-2-4.5
				c0-2.3,0.9-4.1,2.9-5.5c1.9-1.4,4.7-2.1,8.4-2.1c3.7,0,6.7,0.9,8.9,2.7s3.5,4.2,3.7,7.2h13.9c-0.3-6.7-2.8-11.9-7.5-15.8
				c-4.7-3.9-10.8-5.8-18.5-5.8c-5.1,0-9.7,0.9-13.6,2.6c-4,1.7-7,4-9.1,7c-2.1,2.9-3.2,6.2-3.2,9.8c0,4.4,1.2,7.9,3.5,10.6
				c2.3,2.7,5,4.7,8.2,6c3.1,1.3,7.3,2.6,12.3,4c5.2,1.4,9,2.8,11.4,4c2.4,1.2,3.6,3.1,3.6,5.6c0,2.4-1,4.3-3.2,5.8
				s-5.2,2.3-9.1,2.3c-3.7,0-6.8-1-9.3-2.9s-3.9-4.2-4.1-7.1h-14.4c0.2,4.1,1.5,7.8,3.9,11.1c2.5,3.3,5.8,5.9,10,7.8
				c4.1,1.9,8.9,2.9,14.2,3c5.2,0,9.7-0.9,13.6-2.6c3.9-1.7,6.9-4.1,9-7.1c2.1-3.1,3.2-6.5,3.2-10.3c0-4.3-1.2-7.8-3.5-10.4
				C480.6,158.6,477.9,156.6,474.8,155.3z"/>
		</g>
	</g>
</g>
<g id="Layer_2_00000098212899897474017620000004751182467023888802_">
</g>
</svg>
